<svg width="30" height="30" viewBox="0 0 30 30" fill="none" xmlns="http://www.w3.org/2000/svg">
<path d="M15 5C21.0751 5 26 8.79711 26 13.4824C26 18.1665 21.0751 21.9637 15 21.9637C14.3951 21.964 13.7908 21.9259 13.1908 21.8496L8.57286 24.8373C8.048 25.112 7.86257 25.082 8.07838 24.4094L9.01286 20.5978C5.99571 19.0848 4 16.4628 4 13.4824C4 8.79814 8.92486 5 15 5ZM21.1883 13.3528L22.7283 11.8771C22.8171 11.7858 22.8667 11.6639 22.8666 11.5372C22.8664 11.4105 22.8166 11.2887 22.7275 11.1977C22.6384 11.1066 22.5171 11.0533 22.389 11.0489C22.2609 11.0446 22.1362 11.0896 22.0411 11.1744L20.0212 13.1082V11.5102C20.0212 11.3805 19.9692 11.2561 19.8765 11.1643C19.7837 11.0726 19.6579 11.0211 19.5268 11.0211C19.3956 11.0211 19.2699 11.0726 19.1772 11.1643C19.0845 11.2561 19.0323 11.3805 19.0323 11.5102V14.1601C19.0137 14.2357 19.0137 14.3146 19.0323 14.3902V15.8814C19.0323 16.0112 19.0845 16.1356 19.1772 16.2273C19.2699 16.3191 19.3956 16.3706 19.5268 16.3706C19.6579 16.3706 19.7837 16.3191 19.8765 16.2273C19.9692 16.1356 20.0212 16.0112 20.0212 15.8814V14.4689L20.4686 14.0409L21.9646 16.1478C22.002 16.2004 22.0494 16.2452 22.1043 16.2796C22.1591 16.3141 22.2202 16.3375 22.2844 16.3486C22.3483 16.3597 22.4138 16.3581 22.4773 16.3441C22.5407 16.3301 22.6007 16.3039 22.654 16.267C22.7071 16.23 22.7523 16.1831 22.7872 16.1288C22.8221 16.0745 22.8457 16.014 22.857 15.9507C22.8681 15.8874 22.8666 15.8225 22.8524 15.7598C22.8383 15.697 22.8117 15.6377 22.7743 15.5851L21.1883 13.3528ZM18.0894 15.3467H16.5599V11.5258C16.554 11.4001 16.4995 11.2814 16.4075 11.1945C16.3155 11.1076 16.1932 11.0591 16.0659 11.0591C15.9388 11.0591 15.8164 11.1076 15.7244 11.1945C15.6325 11.2814 15.5778 11.4001 15.572 11.5258V15.8359C15.572 16.1053 15.792 16.325 16.0654 16.325H18.0894C18.2206 16.325 18.3464 16.2735 18.4391 16.1817C18.5318 16.09 18.584 15.9656 18.584 15.8359C18.584 15.7061 18.5318 15.5817 18.4391 15.49C18.3464 15.3982 18.2206 15.3467 18.0894 15.3467ZM11.9535 14.215L12.6827 12.446L13.3511 14.215H11.9535ZM14.5967 14.7208L14.5988 14.7042C14.5985 14.5809 14.551 14.4624 14.4657 14.3725L13.3699 11.4708C13.324 11.3326 13.2365 11.2114 13.1191 11.1237C13.0017 11.0359 12.8601 10.9856 12.7131 10.9796C12.565 10.979 12.4202 11.0229 12.298 11.1057C12.1758 11.1884 12.0819 11.306 12.0289 11.4429L10.2889 15.6659C10.2643 15.7254 10.2518 15.789 10.2521 15.8533C10.2525 15.9175 10.2656 15.9811 10.2907 16.0403C10.3159 16.0995 10.3526 16.1533 10.3987 16.1985C10.4449 16.2437 10.4995 16.2795 10.5597 16.3038C10.6198 16.328 10.6841 16.3404 10.7491 16.3401C10.814 16.3398 10.8783 16.3268 10.9382 16.3019C10.998 16.277 11.0524 16.2407 11.0981 16.1951C11.1438 16.1494 11.1799 16.0953 11.2045 16.0359L11.5502 15.1933H13.7188L14.032 16.0224C14.0533 16.0844 14.087 16.1415 14.131 16.1903C14.175 16.2392 14.2285 16.2789 14.2883 16.3069C14.348 16.335 14.4129 16.3508 14.479 16.3537C14.5451 16.3565 14.6111 16.3461 14.6731 16.3232C14.7351 16.3003 14.7918 16.2653 14.8399 16.2204C14.888 16.1754 14.9264 16.1214 14.953 16.0614C14.9796 16.0015 14.9937 15.9369 14.9946 15.8714C14.9955 15.806 14.9831 15.741 14.9581 15.6804L14.5967 14.7208ZM11.1165 11.5309C11.1165 11.4014 11.0645 11.2771 10.972 11.1854C10.8795 11.0937 10.754 11.0421 10.6231 11.0418H7.22352C7.09238 11.0418 6.96661 11.0933 6.87388 11.1851C6.78115 11.2768 6.72905 11.4012 6.72905 11.5309C6.72905 11.6607 6.78115 11.7851 6.87388 11.8768C6.96661 11.9686 7.09238 12.0201 7.22352 12.0201H8.43877V15.8918C8.43877 16.0215 8.49086 16.146 8.58359 16.2377C8.67632 16.3294 8.8021 16.381 8.93323 16.381C9.06438 16.381 9.19015 16.3294 9.28289 16.2377C9.37562 16.146 9.42771 16.0215 9.42771 15.8918V12.0201H10.622C10.8954 12.0201 11.1165 11.8004 11.1165 11.5309Z" fill="black"/>
</svg>
