<svg width="30" height="30" viewBox="0 0 30 30" fill="none" xmlns="http://www.w3.org/2000/svg">
<path fill-rule="evenodd" clip-rule="evenodd" d="M12.75 18.021V11.478L18.5 14.75L12.75 18.021ZM25.541 9.419C25.287 8.467 24.542 7.717 23.595 7.462C21.879 7 15 7 15 7C15 7 8.121 7 6.405 7.462C5.458 7.717 4.713 8.467 4.46 9.419C4 11.147 4 14.75 4 14.75C4 14.75 4 18.352 4.46 20.08C4.713 21.032 5.458 21.782 6.405 22.037C8.121 22.5 15 22.5 15 22.5C15 22.5 21.879 22.5 23.595 22.037C24.542 21.782 25.287 21.032 25.541 20.08C26 18.352 26 14.75 26 14.75C26 14.75 26 11.147 25.541 9.419Z" fill="white"/>
</svg>
