<?xml version="1.0" encoding="utf-8"?>
<!-- Svg Vector Icons : http://www.onlinewebfonts.com/icon -->
<!DOCTYPE svg PUBLIC "-//W3C//DTD SVG 1.1//EN" "http://www.w3.org/Graphics/SVG/1.1/DTD/svg11.dtd">
<svg version="1.1" xmlns="http://www.w3.org/2000/svg" xmlns:xlink="http://www.w3.org/1999/xlink" x="0px" y="0px" viewBox="0 0 256 256" enable-background="new 0 0 256 256" xml:space="preserve">
<metadata> Svg Vector Icons : http://www.onlinewebfonts.com/icon </metadata>
<g><g><g><g><path fill="#ff6b18" d="M243.6,157.6L214,169.2l9.2,30.4l-31.5-0.6l-3,31.5l-29-12.5L144.8,246l-22-22.8l-24.4,20.3L86.8,214l-30.4,9.5l0.6-31.7l-31.5-3l12.5-29L10,145.1l22.8-22.3L12.4,98.4L42,86.8l-9.2-30.1l31.5,0.6l3-31.7l29,12.7L111.2,10l22,22.8l24.4-20.1L169.2,42l30.4-9.2l-0.6,31.7l31.5,3l-12.5,29l27.9,14.6l-22.8,22L243.6,157.6z"/></g></g><g></g><g></g><g></g><g></g><g></g><g></g><g></g><g></g><g></g><g></g><g></g><g></g><g></g><g></g><g></g></g></g>
</svg>