<svg width="24" height="24"  fill="none" xmlns="http://www.w3.org/2000/svg">
<path d="M11 0C17.0751 0 22 3.79711 22 8.48235C22 13.1665 17.0751 16.9637 11 16.9637C10.3951 16.964 9.79075 16.9259 9.19077 16.8496L4.57286 19.8373C4.048 20.112 3.86257 20.082 4.07838 19.4094L5.01286 15.5978C1.99571 14.0848 0 11.4628 0 8.48235C0 3.79814 4.92486 0 11 0ZM17.1883 8.3528L18.7283 6.87707C18.8171 6.78578 18.8667 6.66394 18.8666 6.5372C18.8664 6.41048 18.8166 6.28874 18.7275 6.19767C18.6384 6.10659 18.5171 6.05327 18.389 6.04893C18.2609 6.0446 18.1362 6.0896 18.0411 6.17444L16.0212 8.10823V6.51021C16.0212 6.38048 15.9692 6.25607 15.8765 6.16434C15.7837 6.07261 15.6579 6.02106 15.5268 6.02106C15.3956 6.02106 15.2699 6.07261 15.1772 6.16434C15.0845 6.25607 15.0323 6.38048 15.0323 6.51021V9.16011C15.0137 9.23569 15.0137 9.31458 15.0323 9.39018V10.8814C15.0323 11.0112 15.0845 11.1356 15.1772 11.2273C15.2699 11.3191 15.3956 11.3706 15.5268 11.3706C15.6579 11.3706 15.7837 11.3191 15.8765 11.2273C15.9692 11.1356 16.0212 11.0112 16.0212 10.8814V9.46892L16.4686 9.04093L17.9646 11.1478C18.002 11.2004 18.0494 11.2452 18.1043 11.2796C18.1591 11.3141 18.2202 11.3375 18.2844 11.3486C18.3483 11.3597 18.4138 11.3581 18.4773 11.3441C18.5407 11.3301 18.6007 11.3039 18.654 11.267C18.7071 11.23 18.7523 11.1831 18.7872 11.1288C18.8221 11.0745 18.8457 11.014 18.857 10.9507C18.8681 10.8874 18.8666 10.8225 18.8524 10.7598C18.8383 10.697 18.8117 10.6377 18.7743 10.5851L17.1883 8.3528ZM14.0894 10.3467H12.5599V6.52576C12.554 6.40006 12.4995 6.28142 12.4075 6.19453C12.3155 6.10762 12.1932 6.05912 12.0659 6.05912C11.9388 6.05912 11.8164 6.10762 11.7244 6.19453C11.6325 6.28142 11.5778 6.40006 11.572 6.52576V10.8359C11.572 11.1053 11.792 11.325 12.0654 11.325H14.0894C14.2206 11.325 14.3464 11.2735 14.4391 11.1817C14.5318 11.09 14.584 10.9656 14.584 10.8359C14.584 10.7061 14.5318 10.5817 14.4391 10.49C14.3464 10.3982 14.2206 10.3467 14.0894 10.3467ZM7.95352 9.21503L8.68266 7.44602L9.35105 9.21503H7.95352ZM10.5967 9.72075L10.5988 9.70418C10.5985 9.58094 10.551 9.46241 10.4657 9.37255L9.36991 6.47084C9.32398 6.33255 9.23646 6.21144 9.11909 6.12366C9.00172 6.03588 8.86006 5.98563 8.71305 5.97962C8.56496 5.97897 8.42017 6.02294 8.29798 6.1057C8.17577 6.18845 8.08194 6.30605 8.02895 6.44286L6.28886 10.6659C6.2643 10.7254 6.25182 10.789 6.25215 10.8533C6.25246 10.9175 6.26557 10.9811 6.29071 11.0403C6.31587 11.0995 6.35256 11.1533 6.3987 11.1985C6.44485 11.2437 6.49954 11.2795 6.55966 11.3038C6.61978 11.328 6.68415 11.3404 6.7491 11.3401C6.81404 11.3398 6.87828 11.3268 6.93816 11.3019C6.99803 11.277 7.05237 11.2407 7.09806 11.1951C7.14376 11.1494 7.17992 11.0953 7.20448 11.0359L7.5502 10.1933H9.71877L10.032 11.0224C10.0533 11.0844 10.087 11.1415 10.131 11.1903C10.175 11.2392 10.2285 11.2789 10.2883 11.3069C10.348 11.335 10.4129 11.3508 10.479 11.3537C10.5451 11.3565 10.6111 11.3461 10.6731 11.3232C10.7351 11.3003 10.7918 11.2653 10.8399 11.2204C10.888 11.1754 10.9264 11.1214 10.953 11.0614C10.9796 11.0015 10.9937 10.9369 10.9946 10.8714C10.9955 10.806 10.9831 10.741 10.9581 10.6804L10.5967 9.72075ZM7.11648 6.53094C7.11648 6.40138 7.06453 6.27713 6.97202 6.18543C6.87951 6.09372 6.75402 6.04206 6.62305 6.0418H3.22352C3.09238 6.0418 2.96661 6.09333 2.87388 6.18506C2.78115 6.27679 2.72905 6.40121 2.72905 6.53094C2.72905 6.66067 2.78115 6.78508 2.87388 6.87683C2.96661 6.96856 3.09238 7.02009 3.22352 7.02009H4.43877V10.8918C4.43877 11.0215 4.49086 11.146 4.58359 11.2377C4.67632 11.3294 4.8021 11.381 4.93323 11.381C5.06438 11.381 5.19015 11.3294 5.28289 11.2377C5.37562 11.146 5.42771 11.0215 5.42771 10.8918V7.02009H6.622C6.89543 7.02009 7.11648 6.80039 7.11648 6.53094Z" fill="#001018"/>
</svg>
