<svg width="24" height="24" fill="none" xmlns="http://www.w3.org/2000/svg"><path fill-rule="evenodd" clip-rule="evenodd" d="M9.75 15.021V8.478l5.75 3.272-5.75 3.271zm12.791-8.602c-.254-.952-.999-1.702-1.946-1.957C18.879 4 12 4 12 4s-6.879 0-8.595.462c-.947.255-1.692 1.005-1.945 1.957C1 8.147 1 11.75 1 11.75s0 3.602.46 5.33c.253.952.998 1.702 1.945 1.957C5.121 19.5 12 19.5 12 19.5s6.879 0 8.595-.463c.947-.255 1.692-1.005 1.946-1.957.459-1.728.459-5.33.459-5.33s0-3.603-.459-5.331z" fill="#000"/></svg>
