<svg width="773" height="67" viewBox="0 0 773 67" fill="none" xmlns="http://www.w3.org/2000/svg">
<path d="M25.5 31.2031H55.5C56.9531 31.2031 58.2188 30.6875 59.25 29.6562C60.3281 28.5781 60.8438 27.3125 60.8438 25.8594C60.8438 24.3594 60.3281 23.0938 59.25 22.0625C58.2188 20.9844 56.9531 20.4688 55.5 20.4688H25.5V31.2031ZM0.9375 2.04688H61.6406C74.625 1.90625 85.6406 12.8281 85.4531 25.8594C85.6406 38.8438 74.625 49.8594 61.6406 49.6719H25.5V65.0469H0.9375V2.04688ZM134.344 0.40625C158.062 0.40625 177.328 7.34375 177.328 31.1562V35.75C177.422 59.5625 158.016 66.4531 134.344 66.5C110.625 66.4531 91.2188 59.5625 91.3125 35.75V31.1562C91.2188 7.29688 110.625 0.453125 134.344 0.40625ZM152.766 34.2031V32.6562C152.906 22.3906 144.375 20.5156 134.344 20.375C124.266 20.5156 115.734 22.3906 115.875 32.6562V34.2031C115.734 44.5156 124.266 46.3906 134.344 46.5312C144.375 46.3906 152.906 44.5156 152.766 34.2031ZM184.688 64.9531V1.95312H215.438L240 33.4531L264.609 1.95312H295.312V64.9531H270.75V31.3438L246.141 64.9531H233.859L209.25 31.3438V64.9531H184.688ZM309.656 64.9531V1.95312H340.406L364.969 33.4531L389.578 1.95312H420.281V64.9531H395.719V31.3438L371.109 64.9531H358.828L334.219 31.3438V64.9531H309.656ZM434.625 65.0469V2.04688H508.359V18.1719H459.188V26.2344H508.359V40.8125H459.188V48.875H508.359V65.0469H434.625ZM569.859 65.0469H545.297V22.0156H516.094V2.04688H599.062V22.0156H569.859V65.0469ZM661.641 65.0469H637.078V22.0156H607.875V2.04688H690.844V22.0156H661.641V65.0469ZM699.094 65.0469V2.04688H772.828V18.1719H723.656V26.2344H772.828V40.8125H723.656V48.875H772.828V65.0469H699.094Z" fill="white"/>
</svg>
