<svg width="30" height="30" viewBox="0 0 30 30" fill="none" xmlns="http://www.w3.org/2000/svg">
<path fill-rule="evenodd" clip-rule="evenodd" d="M15 5C12.284 5 11.944 5.012 10.877 5.061C9.813 5.108 9.086 5.277 8.45 5.525C7.792 5.78 7.234 6.122 6.678 6.679C6.123 7.234 5.781 7.792 5.525 8.449C5.278 9.086 5.109 9.812 5.06 10.877C5.012 11.943 5 12.284 5 15C5 17.716 5.012 18.057 5.06 19.123C5.109 20.188 5.278 20.914 5.525 21.551C5.781 22.208 6.123 22.766 6.678 23.321C7.234 23.878 7.792 24.22 8.45 24.475C9.086 24.723 9.813 24.892 10.877 24.939C11.944 24.988 12.284 25 15 25C17.716 25 18.056 24.988 19.123 24.939C20.187 24.892 20.914 24.723 21.55 24.475C22.208 24.22 22.766 23.878 23.321 23.321C23.878 22.766 24.22 22.208 24.475 21.551C24.723 20.914 24.892 20.188 24.939 19.123C24.988 18.057 25 17.716 25 15C25 12.284 24.988 11.943 24.939 10.877C24.892 9.812 24.723 9.086 24.475 8.449C24.22 7.792 23.878 7.234 23.321 6.679C22.766 6.122 22.208 5.78 21.55 5.525C20.914 5.277 20.187 5.108 19.123 5.061C18.056 5.012 17.716 5 15 5ZM15 6.802C17.67 6.802 17.986 6.812 19.041 6.86C20.016 6.904 20.545 7.067 20.898 7.204C21.364 7.386 21.698 7.603 22.048 7.952C22.397 8.303 22.614 8.636 22.796 9.103C22.933 9.455 23.096 9.984 23.14 10.959C23.188 12.014 23.198 12.33 23.198 15C23.198 17.67 23.188 17.986 23.14 19.041C23.096 20.016 22.933 20.545 22.796 20.897C22.614 21.364 22.397 21.697 22.048 22.048C21.698 22.397 21.364 22.614 20.898 22.796C20.545 22.933 20.016 23.096 19.041 23.14C17.986 23.188 17.67 23.198 15 23.198C12.33 23.198 12.014 23.188 10.959 23.14C9.984 23.096 9.455 22.933 9.102 22.796C8.636 22.614 8.302 22.397 7.953 22.048C7.603 21.697 7.386 21.364 7.205 20.897C7.067 20.545 6.905 20.016 6.86 19.041C6.812 17.986 6.802 17.67 6.802 15C6.802 12.33 6.812 12.014 6.86 10.959C6.905 9.984 7.067 9.455 7.205 9.103C7.386 8.636 7.603 8.303 7.953 7.952C8.302 7.603 8.636 7.386 9.102 7.204C9.455 7.067 9.984 6.904 10.959 6.86C12.014 6.812 12.33 6.802 15 6.802ZM15 18.333C13.159 18.333 11.667 16.841 11.667 15C11.667 13.159 13.159 11.667 15 11.667C16.841 11.667 18.333 13.159 18.333 15C18.333 16.841 16.841 18.333 15 18.333ZM15 9.865C12.164 9.865 9.865 12.164 9.865 15C9.865 17.836 12.164 20.135 15 20.135C17.836 20.135 20.135 17.836 20.135 15C20.135 12.164 17.836 9.865 15 9.865ZM20.3381 10.862C21.0011 10.862 21.5381 10.325 21.5381 9.662C21.5381 8.999 21.0011 8.462 20.3381 8.462C19.6751 8.462 19.1381 8.999 19.1381 9.662C19.1381 10.325 19.6751 10.862 20.3381 10.862Z" fill="white"/>
</svg>
