<svg width="24" height="24" fill="none" xmlns="http://www.w3.org/2000/svg"><path fill-rule="evenodd" clip-rule="evenodd" d="M12 1.9998c-2.716 0-3.056.012-4.123.061-1.064.047-1.791.216-2.427.464-.658.255-1.216.597-1.772 1.154-.555.555-.897 1.113-1.153 1.77-.247.637-.416 1.363-.465 2.428-.048 1.066-.06 1.407-.06 4.123s.012 3.057.06 4.123c.049 1.065.218 1.791.465 2.428.256.657.598 1.215 1.153 1.77.556.557 1.114.899 1.772 1.154.636.248 1.363.417 2.427.464 1.067.049 1.407.061 4.123.061s3.056-.012 4.123-.061c1.064-.047 1.791-.216 2.427-.464.658-.255 1.216-.597 1.771-1.154.557-.555.899-1.113 1.154-1.77.248-.637.417-1.363.464-2.428.049-1.066.061-1.407.061-4.123s-.012-3.057-.061-4.123c-.047-1.065-.216-1.791-.464-2.428-.255-.657-.597-1.215-1.154-1.77-.555-.557-1.113-.899-1.771-1.154-.636-.248-1.363-.417-2.427-.464-1.067-.049-1.407-.061-4.123-.061zm0 1.802c2.67 0 2.986.01 4.041.058.975.044 1.504.207 1.857.344.466.182.8.399 1.15.748.349.351.566.684.748 1.151.137.352.3.881.344 1.856.048 1.055.058 1.371.058 4.041 0 2.67-.01 2.986-.058 4.041-.044.975-.207 1.504-.344 1.856-.182.467-.399.8-.748 1.151-.35.349-.684.566-1.15.748-.353.137-.882.3-1.857.344-1.055.048-1.371.058-4.041.058-2.67 0-2.986-.01-4.041-.058-.975-.044-1.504-.207-1.857-.344-.466-.182-.8-.399-1.149-.748-.35-.351-.567-.684-.748-1.151-.138-.352-.3-.881-.345-1.856-.048-1.055-.058-1.371-.058-4.041 0-2.67.01-2.986.058-4.041.045-.975.207-1.504.345-1.856.181-.467.398-.8.748-1.151.349-.349.683-.566 1.149-.748.353-.137.882-.3 1.857-.344 1.055-.048 1.371-.058 4.041-.058zm0 11.531c-1.841 0-3.333-1.492-3.333-3.333 0-1.841 1.492-3.333 3.333-3.333 1.841 0 3.333 1.492 3.333 3.333 0 1.841-1.492 3.333-3.333 3.333zm0-8.468c-2.836 0-5.135 2.299-5.135 5.135s2.299 5.135 5.135 5.135 5.135-2.299 5.135-5.135-2.299-5.135-5.135-5.135zm5.3381.997c.663 0 1.2-.537 1.2-1.2 0-.663-.537-1.2-1.2-1.2-.663 0-1.2.537-1.2 1.2 0 .663.537 1.2 1.2 1.2z" fill="#000"/></svg>
