<svg width="298" height="47" viewBox="0 0 298 47" fill="none" xmlns="http://www.w3.org/2000/svg">
<path d="M9.376 36.72C6.592 36.72 4.352 36.016 2.656 34.608C0.992 33.168 0.16 31.232 0.16 28.8C0.16 26.24 0.96 24.272 2.56 22.896C4.192 21.488 6.496 20.784 9.472 20.784C12.64 20.784 15.328 21.424 17.536 22.704V21.504C17.536 19.68 16.976 18.336 15.856 17.472C14.768 16.576 13.04 16.128 10.672 16.128C9.264 16.128 7.888 16.272 6.544 16.56C5.232 16.816 4.048 17.184 2.992 17.664V13.728C3.952 13.28 5.2 12.928 6.736 12.672C8.272 12.384 9.76 12.24 11.2 12.24C15.008 12.24 17.824 13.088 19.648 14.784C21.504 16.448 22.432 18.768 22.432 21.744V36H17.872V33.408C16.88 34.496 15.696 35.328 14.32 35.904C12.976 36.448 11.328 36.72 9.376 36.72ZM10.576 33.024C12.112 33.024 13.504 32.72 14.752 32.112C16 31.504 16.928 30.656 17.536 29.568V26.448C15.456 25.104 13.136 24.432 10.576 24.432C8.72 24.432 7.328 24.8 6.4 25.536C5.504 26.24 5.056 27.328 5.056 28.8C5.056 31.616 6.896 33.024 10.576 33.024ZM28.4481 0.527999H33.2961V36H28.4481V0.527999ZM39.5575 0.527999H44.4055V36H39.5575V0.527999ZM50.6669 12.96H55.3709V17.088C56.3309 15.68 57.6749 14.64 59.4029 13.968C61.1629 13.296 63.1949 12.96 65.4989 12.96V16.752C63.0349 16.752 60.9229 17.152 59.1629 17.952C57.4029 18.752 56.1869 20.016 55.5149 21.744V36H50.6669V12.96ZM81.2796 36.72C78.6876 36.72 76.3996 36.24 74.4156 35.28C72.4636 34.288 70.9276 32.88 69.8076 31.056C68.7196 29.2 68.1756 27.024 68.1756 24.528C68.1756 22.064 68.7196 19.904 69.8076 18.048C70.8956 16.192 72.4316 14.768 74.4156 13.776C76.3996 12.752 78.6876 12.24 81.2796 12.24C83.8716 12.24 86.1596 12.752 88.1436 13.776C90.1276 14.768 91.6636 16.192 92.7516 18.048C93.8716 19.904 94.4316 22.064 94.4316 24.528C94.4316 27.024 93.8716 29.2 92.7516 31.056C91.6636 32.88 90.1276 34.288 88.1436 35.28C86.1596 36.24 83.8716 36.72 81.2796 36.72ZM81.2796 32.88C83.7756 32.88 85.7596 32.112 87.2316 30.576C88.7036 29.04 89.4396 27.024 89.4396 24.528C89.4396 21.936 88.7036 19.888 87.2316 18.384C85.7596 16.88 83.7756 16.128 81.2796 16.128C78.7836 16.128 76.7996 16.88 75.3276 18.384C73.8556 19.888 73.1196 21.936 73.1196 24.528C73.1196 27.024 73.8556 29.04 75.3276 30.576C76.7996 32.112 78.7836 32.88 81.2796 32.88ZM108.866 36.72C105.762 36.72 103.41 35.888 101.81 34.224C100.242 32.56 99.4581 30.336 99.4581 27.552V12.96H104.306V27.36C104.306 31.04 106.146 32.88 109.826 32.88C113.058 32.88 115.586 31.424 117.41 28.512V12.96H122.258V36H117.554V32.736C116.466 34.112 115.17 35.12 113.666 35.76C112.194 36.4 110.594 36.72 108.866 36.72ZM128.479 12.96H133.183V16.272C134.271 14.896 135.599 13.888 137.167 13.248C138.767 12.576 140.431 12.24 142.159 12.24C145.231 12.24 147.519 13.056 149.023 14.688C150.527 16.32 151.279 18.512 151.279 21.264V36H146.431V21.744C146.431 18 144.639 16.128 141.055 16.128C139.519 16.128 138.079 16.496 136.735 17.232C135.423 17.936 134.287 19.024 133.327 20.496V36H128.479V12.96ZM168.397 36.72C166.093 36.72 164.013 36.224 162.157 35.232C160.333 34.208 158.893 32.784 157.837 30.96C156.813 29.104 156.301 26.96 156.301 24.528C156.301 22.128 156.813 20 157.837 18.144C158.893 16.288 160.333 14.848 162.157 13.824C164.013 12.768 166.093 12.24 168.397 12.24C172.557 12.24 175.709 13.504 177.853 16.032V0.527999H182.701V36H177.997V32.64C176.717 34.048 175.309 35.088 173.773 35.76C172.269 36.4 170.477 36.72 168.397 36.72ZM169.501 32.88C171.485 32.88 173.213 32.368 174.685 31.344C176.189 30.288 177.245 28.88 177.853 27.12V21.936C177.309 20.176 176.269 18.768 174.733 17.712C173.229 16.656 171.485 16.128 169.501 16.128C167.933 16.128 166.509 16.48 165.229 17.184C163.981 17.888 162.989 18.88 162.253 20.16C161.549 21.44 161.197 22.896 161.197 24.528C161.197 26.16 161.549 27.616 162.253 28.896C162.989 30.176 163.981 31.168 165.229 31.872C166.509 32.544 167.933 32.88 169.501 32.88ZM197.444 36.72C195.844 36.72 194.148 36.512 192.356 36.096C190.564 35.712 189.156 35.184 188.132 34.512V30.384C189.38 31.12 190.82 31.728 192.452 32.208C194.084 32.656 195.668 32.88 197.204 32.88C198.932 32.88 200.196 32.672 200.996 32.256C201.796 31.84 202.196 31.168 202.196 30.24C202.196 29.536 202.004 28.976 201.62 28.56C201.268 28.112 200.644 27.712 199.748 27.36C198.884 27.008 197.572 26.592 195.812 26.112C193.924 25.568 192.42 25.024 191.3 24.48C190.212 23.904 189.38 23.184 188.804 22.32C188.26 21.456 187.988 20.336 187.988 18.96C187.988 16.752 188.852 15.088 190.58 13.968C192.34 12.816 194.692 12.24 197.636 12.24C199.172 12.24 200.676 12.384 202.148 12.672C203.62 12.96 204.804 13.36 205.7 13.872V17.904C204.772 17.36 203.62 16.928 202.244 16.608C200.9 16.288 199.524 16.128 198.116 16.128C196.42 16.128 195.124 16.336 194.228 16.752C193.332 17.168 192.884 17.904 192.884 18.96C192.884 19.632 193.076 20.176 193.46 20.592C193.844 21.008 194.452 21.376 195.284 21.696C196.148 21.984 197.508 22.368 199.364 22.848C202.276 23.648 204.292 24.592 205.412 25.68C206.564 26.768 207.14 28.272 207.14 30.192C207.14 32.176 206.324 33.76 204.692 34.944C203.06 36.128 200.644 36.72 197.444 36.72ZM212.433 0.527999H217.281V16.128C219.489 13.536 222.433 12.24 226.113 12.24C229.185 12.24 231.473 13.056 232.977 14.688C234.481 16.32 235.233 18.512 235.233 21.264V36H230.385V21.744C230.385 18 228.593 16.128 225.009 16.128C223.473 16.128 222.033 16.496 220.689 17.232C219.377 17.936 218.241 19.024 217.281 20.496V36H212.433V0.527999ZM252.655 36.72C250.063 36.72 247.775 36.24 245.791 35.28C243.839 34.288 242.303 32.88 241.183 31.056C240.095 29.2 239.551 27.024 239.551 24.528C239.551 22.064 240.095 19.904 241.183 18.048C242.271 16.192 243.807 14.768 245.791 13.776C247.775 12.752 250.063 12.24 252.655 12.24C255.247 12.24 257.535 12.752 259.519 13.776C261.503 14.768 263.039 16.192 264.127 18.048C265.247 19.904 265.807 22.064 265.807 24.528C265.807 27.024 265.247 29.2 264.127 31.056C263.039 32.88 261.503 34.288 259.519 35.28C257.535 36.24 255.247 36.72 252.655 36.72ZM252.655 32.88C255.151 32.88 257.135 32.112 258.607 30.576C260.079 29.04 260.815 27.024 260.815 24.528C260.815 21.936 260.079 19.888 258.607 18.384C257.135 16.88 255.151 16.128 252.655 16.128C250.159 16.128 248.175 16.88 246.703 18.384C245.231 19.888 244.495 21.936 244.495 24.528C244.495 27.024 245.231 29.04 246.703 30.576C248.175 32.112 250.159 32.88 252.655 32.88ZM271.073 12.96H275.777V16.368C278.145 13.616 281.345 12.24 285.377 12.24C287.681 12.24 289.745 12.752 291.569 13.776C293.425 14.8 294.865 16.24 295.889 18.096C296.945 19.92 297.473 22.048 297.473 24.48C297.473 26.88 296.945 29.008 295.889 30.864C294.865 32.72 293.441 34.16 291.617 35.184C289.793 36.208 287.713 36.72 285.377 36.72C283.457 36.72 281.665 36.4 280.001 35.76C278.337 35.12 276.977 34.176 275.921 32.928V46.512H271.073V12.96ZM284.273 32.88C285.841 32.88 287.249 32.544 288.497 31.872C289.777 31.168 290.769 30.176 291.473 28.896C292.209 27.616 292.577 26.144 292.577 24.48C292.577 22.816 292.209 21.36 291.473 20.112C290.769 18.832 289.777 17.856 288.497 17.184C287.249 16.48 285.841 16.128 284.273 16.128C282.321 16.128 280.593 16.64 279.089 17.664C277.617 18.688 276.561 20.096 275.921 21.888V27.072C276.465 28.832 277.505 30.24 279.041 31.296C280.577 32.352 282.321 32.88 284.273 32.88Z" fill="white"/>
</svg>
